<?xml version="1.0" standalone="yes"?>

<svg version="1.1" viewBox="0.0 0.0 960.0 720.0" fill="none" stroke="none" stroke-linecap="square" stroke-miterlimit="10" xmlns="http://www.w3.org/2000/svg" xmlns:xlink="http://www.w3.org/1999/xlink"><clipPath id="p.0"><path d="m0 0l960.0 0l0 720.0l-960.0 0l0 -720.0z" clip-rule="nonzero"></path></clipPath><g clip-path="url(#p.0)"><path fill="#000000" fill-opacity="0.0" d="m0 0l960.0 0l0 720.0l-960.0 0z" fill-rule="evenodd"></path><path fill="#cfe2f3" d="m410.8084 110.08137l0 0c0 -7.8450546 6.155182 -14.204727 13.748016 -14.204727l0 0c3.6462097 0 7.1430664 1.4965668 9.721344 4.160469c2.578247 2.6639023 4.026703 6.276932 4.026703 10.044258l0 0c0 7.845047 -6.1552124 14.20472 -13.748047 14.20472l0 0c-7.5928345 0 -13.748016 -6.3596725 -13.748016 -14.20472z" fill-rule="evenodd"></path><path stroke="#000000" stroke-width="1.0" stroke-linejoin="round" stroke-linecap="butt" d="m410.8084 110.08137l0 0c0 -7.8450546 6.155182 -14.204727 13.748016 -14.204727l0 0c3.6462097 0 7.1430664 1.4965668 9.721344 4.160469c2.578247 2.6639023 4.026703 6.276932 4.026703 10.044258l0 0c0 7.845047 -6.1552124 14.20472 -13.748047 14.20472l0 0c-7.5928345 0 -13.748016 -6.3596725 -13.748016 -14.20472z" fill-rule="evenodd"></path><path fill="#cfe2f3" d="m410.8084 221.71391l0 0c0 -7.8450623 6.155182 -14.204727 13.748016 -14.204727l0 0c3.6462097 0 7.1430664 1.4965668 9.721344 4.1604614c2.578247 2.66391 4.026703 6.276932 4.026703 10.044266l0 0c0 7.845047 -6.1552124 14.204727 -13.748047 14.204727l0 0c-7.5928345 0 -13.748016 -6.35968 -13.748016 -14.204727z" fill-rule="evenodd"></path><path stroke="#000000" stroke-width="1.0" stroke-linejoin="round" stroke-linecap="butt" d="m410.8084 221.71391l0 0c0 -7.8450623 6.155182 -14.204727 13.748016 -14.204727l0 0c3.6462097 0 7.1430664 1.4965668 9.721344 4.1604614c2.578247 2.66391 4.026703 6.276932 4.026703 10.044266l0 0c0 7.845047 -6.1552124 14.204727 -13.748047 14.204727l0 0c-7.5928345 0 -13.748016 -6.35968 -13.748016 -14.204727z" fill-rule="evenodd"></path><path fill="#cfe2f3" d="m317.6168 285.10236l0 0c0 -7.8450317 6.1552124 -14.204712 13.748047 -14.204712l0 0c3.6462097 0 7.1430664 1.4965515 9.721313 4.1604614c2.578247 2.66391 4.026703 6.2769165 4.026703 10.0442505l0 0c0 7.8450623 -6.155182 14.204742 -13.748016 14.204742l0 0c-7.5928345 0 -13.748047 -6.35968 -13.748047 -14.204742z" fill-rule="evenodd"></path><path stroke="#000000" stroke-width="1.0" stroke-linejoin="round" stroke-linecap="butt" d="m317.6168 285.10236l0 0c0 -7.8450317 6.1552124 -14.204712 13.748047 -14.204712l0 0c3.6462097 0 7.1430664 1.4965515 9.721313 4.1604614c2.578247 2.66391 4.026703 6.2769165 4.026703 10.0442505l0 0c0 7.8450623 -6.155182 14.204742 -13.748016 14.204742l0 0c-7.5928345 0 -13.748047 -6.35968 -13.748047 -14.204742z" fill-rule="evenodd"></path><path fill="#cfe2f3" d="m506.25198 285.10236l0 0c0 -7.8450317 6.155182 -14.204712 13.748016 -14.204712l0 0c3.6461792 0 7.1430664 1.4965515 9.721313 4.1604614c2.578247 2.66391 4.0267334 6.2769165 4.0267334 10.0442505l0 0c0 7.8450623 -6.1552124 14.204742 -13.748047 14.204742l0 0c-7.5928345 0 -13.748016 -6.35968 -13.748016 -14.204742z" fill-rule="evenodd"></path><path stroke="#000000" stroke-width="1.0" stroke-linejoin="round" stroke-linecap="butt" d="m506.25198 285.10236l0 0c0 -7.8450317 6.155182 -14.204712 13.748016 -14.204712l0 0c3.6461792 0 7.1430664 1.4965515 9.721313 4.1604614c2.578247 2.66391 4.0267334 6.2769165 4.0267334 10.0442505l0 0c0 7.8450623 -6.1552124 14.204742 -13.748047 14.204742l0 0c-7.5928345 0 -13.748016 -6.35968 -13.748016 -14.204742z" fill-rule="evenodd"></path><path fill="#000000" fill-opacity="0.0" d="m424.55643 124.28609l0 83.2126" fill-rule="evenodd"></path><path stroke="#000000" stroke-width="1.0" stroke-linejoin="round" stroke-linecap="butt" d="m424.55643 124.28609l0 83.2126" fill-rule="evenodd"></path><path fill="#000000" fill-opacity="0.0" d="m414.8351 120.12562l-83.46457 150.77167" fill-rule="evenodd"></path><path stroke="#000000" stroke-width="1.0" stroke-linejoin="round" stroke-linecap="butt" d="m414.8351 120.12562l-83.46457 150.77167" fill-rule="evenodd"></path><path fill="#000000" fill-opacity="0.0" d="m506.25198 285.10236l-161.13388 0" fill-rule="evenodd"></path><path stroke="#000000" stroke-width="1.0" stroke-linejoin="round" stroke-linecap="butt" d="m506.25198 285.10236l-161.13388 0" fill-rule="evenodd"></path><path fill="#000000" fill-opacity="0.0" d="m414.8351 231.75816l-73.763794 43.307083" fill-rule="evenodd"></path><path stroke="#000000" stroke-width="1.0" stroke-linejoin="round" stroke-linecap="butt" d="m414.8351 231.75816l-73.763794 43.307083" fill-rule="evenodd"></path><path fill="#000000" fill-opacity="0.0" d="m434.27777 231.75816l76.0 43.307083" fill-rule="evenodd"></path><path stroke="#000000" stroke-width="1.0" stroke-linejoin="round" stroke-linecap="butt" d="m434.27777 231.75816l76.0 43.307083" fill-rule="evenodd"></path><path fill="#000000" fill-opacity="0.0" d="m434.27777 120.12562l85.73224 150.77167" fill-rule="evenodd"></path><path stroke="#000000" stroke-width="1.0" stroke-linejoin="round" stroke-linecap="butt" d="m434.27777 120.12562l85.73224 150.77167" fill-rule="evenodd"></path><path fill="#cfe2f3" d="m458.53018 253.41208l0 0c0 -7.8450623 6.1552124 -14.204727 13.748047 -14.204727l0 0c3.6461792 0 7.1430664 1.4965668 9.721313 4.1604614c2.578247 2.66391 4.026703 6.276932 4.026703 10.044266l0 0c0 7.8450623 -6.1552124 14.204712 -13.748016 14.204712l0 0c-7.5928345 0 -13.748047 -6.3596497 -13.748047 -14.204712z" fill-rule="evenodd"></path><path stroke="#000000" stroke-width="1.0" stroke-linejoin="round" stroke-linecap="butt" d="m458.53018 253.41208l0 0c0 -7.8450623 6.1552124 -14.204727 13.748047 -14.204727l0 0c3.6461792 0 7.1430664 1.4965668 9.721313 4.1604614c2.578247 2.66391 4.026703 6.276932 4.026703 10.044266l0 0c0 7.8450623 -6.1552124 14.204712 -13.748016 14.204712l0 0c-7.5928345 0 -13.748047 -6.3596497 -13.748047 -14.204712z" fill-rule="evenodd"></path><path fill="#cfe2f3" d="m379.09448 159.3307l0 0c0 -7.845047 6.1552124 -14.204712 13.748047 -14.204712l0 0c3.6462097 0 7.1430664 1.4965515 9.721313 4.1604614c2.578247 2.6638947 4.026703 6.276932 4.026703 10.0442505l0 0c0 7.8450623 -6.1552124 14.204727 -13.748016 14.204727l0 0c-7.5928345 0 -13.748047 -6.359665 -13.748047 -14.204727z" fill-rule="evenodd"></path><path stroke="#000000" stroke-width="1.0" stroke-linejoin="round" stroke-linecap="butt" d="m379.09448 159.3307l0 0c0 -7.845047 6.1552124 -14.204712 13.748047 -14.204712l0 0c3.6462097 0 7.1430664 1.4965515 9.721313 4.1604614c2.578247 2.6638947 4.026703 6.276932 4.026703 10.0442505l0 0c0 7.8450623 -6.1552124 14.204727 -13.748016 14.204727l0 0c-7.5928345 0 -13.748047 -6.359665 -13.748047 -14.204727z" fill-rule="evenodd"></path><path fill="#cfe2f3" d="m345.1181 221.71391l0 0c0 -7.8450623 6.1552124 -14.204727 13.748047 -14.204727l0 0c3.6462097 0 7.1430664 1.4965668 9.721313 4.1604614c2.578247 2.66391 4.026703 6.276932 4.026703 10.044266l0 0c0 7.845047 -6.155182 14.204727 -13.748016 14.204727l0 0c-7.5928345 0 -13.748047 -6.35968 -13.748047 -14.204727z" fill-rule="evenodd"></path><path stroke="#000000" stroke-width="1.0" stroke-linejoin="round" stroke-linecap="butt" d="m345.1181 221.71391l0 0c0 -7.8450623 6.1552124 -14.204727 13.748047 -14.204727l0 0c3.6462097 0 7.1430664 1.4965668 9.721313 4.1604614c2.578247 2.66391 4.026703 6.276932 4.026703 10.044266l0 0c0 7.845047 -6.155182 14.204727 -13.748016 14.204727l0 0c-7.5928345 0 -13.748047 -6.35968 -13.748047 -14.204727z" fill-rule="evenodd"></path><path fill="#cfe2f3" d="m458.53018 187.74016l0 0c0 -7.845047 6.1552124 -14.204727 13.748047 -14.204727l0 0c3.6461792 0 7.1430664 1.4965668 9.721313 4.1604767c2.578247 2.6638947 4.026703 6.2769165 4.026703 10.0442505l0 0c0 7.845047 -6.1552124 14.204727 -13.748016 14.204727l0 0c-7.5928345 0 -13.748047 -6.35968 -13.748047 -14.204727z" fill-rule="evenodd"></path><path stroke="#000000" stroke-width="1.0" stroke-linejoin="round" stroke-linecap="butt" d="m458.53018 187.74016l0 0c0 -7.845047 6.1552124 -14.204727 13.748047 -14.204727l0 0c3.6461792 0 7.1430664 1.4965668 9.721313 4.1604767c2.578247 2.6638947 4.026703 6.2769165 4.026703 10.0442505l0 0c0 7.845047 -6.1552124 14.204727 -13.748016 14.204727l0 0c-7.5928345 0 -13.748047 -6.35968 -13.748047 -14.204727z" fill-rule="evenodd"></path><path fill="#cfe2f3" d="m154.8084 110.08137l0 0c0 -7.8450546 6.1552124 -14.204727 13.748032 -14.204727l0 0c3.6462097 0 7.1430664 1.4965668 9.721329 4.160469c2.5782623 2.6639023 4.026703 6.276932 4.026703 10.044258l0 0c0 7.845047 -6.155197 14.20472 -13.748032 14.20472l0 0c-7.592819 0 -13.748032 -6.3596725 -13.748032 -14.20472z" fill-rule="evenodd"></path><path stroke="#000000" stroke-width="1.0" stroke-linejoin="round" stroke-linecap="butt" d="m154.8084 110.08137l0 0c0 -7.8450546 6.1552124 -14.204727 13.748032 -14.204727l0 0c3.6462097 0 7.1430664 1.4965668 9.721329 4.160469c2.5782623 2.6639023 4.026703 6.276932 4.026703 10.044258l0 0c0 7.845047 -6.155197 14.20472 -13.748032 14.20472l0 0c-7.592819 0 -13.748032 -6.3596725 -13.748032 -14.20472z" fill-rule="evenodd"></path><path fill="#cfe2f3" d="m154.8084 221.71391l0 0c0 -7.8450623 6.1552124 -14.204727 13.748032 -14.204727l0 0c3.6462097 0 7.1430664 1.4965668 9.721329 4.1604614c2.5782623 2.66391 4.026703 6.276932 4.026703 10.044266l0 0c0 7.845047 -6.155197 14.204727 -13.748032 14.204727l0 0c-7.592819 0 -13.748032 -6.35968 -13.748032 -14.204727z" fill-rule="evenodd"></path><path stroke="#000000" stroke-width="1.0" stroke-linejoin="round" stroke-linecap="butt" d="m154.8084 221.71391l0 0c0 -7.8450623 6.1552124 -14.204727 13.748032 -14.204727l0 0c3.6462097 0 7.1430664 1.4965668 9.721329 4.1604614c2.5782623 2.66391 4.026703 6.276932 4.026703 10.044266l0 0c0 7.845047 -6.155197 14.204727 -13.748032 14.204727l0 0c-7.592819 0 -13.748032 -6.35968 -13.748032 -14.204727z" fill-rule="evenodd"></path><path fill="#cfe2f3" d="m61.6168 285.10236l0 0c0 -7.8450317 6.155205 -14.204712 13.748032 -14.204712l0 0c3.646202 0 7.1430664 1.4965515 9.721329 4.1604614c2.5782547 2.66391 4.026703 6.2769165 4.026703 10.0442505l0 0c0 7.8450623 -6.155205 14.204742 -13.748032 14.204742l0 0c-7.592827 0 -13.748032 -6.35968 -13.748032 -14.204742z" fill-rule="evenodd"></path><path stroke="#000000" stroke-width="1.0" stroke-linejoin="round" stroke-linecap="butt" d="m61.6168 285.10236l0 0c0 -7.8450317 6.155205 -14.204712 13.748032 -14.204712l0 0c3.646202 0 7.1430664 1.4965515 9.721329 4.1604614c2.5782547 2.66391 4.026703 6.2769165 4.026703 10.0442505l0 0c0 7.8450623 -6.155205 14.204742 -13.748032 14.204742l0 0c-7.592827 0 -13.748032 -6.35968 -13.748032 -14.204742z" fill-rule="evenodd"></path><path fill="#cfe2f3" d="m250.25197 285.10236l0 0c0 -7.8450317 6.155197 -14.204712 13.748032 -14.204712l0 0c3.6462097 0 7.1430664 1.4965515 9.721313 4.1604614c2.5782776 2.66391 4.026703 6.2769165 4.026703 10.0442505l0 0c0 7.8450623 -6.155182 14.204742 -13.748016 14.204742l0 0c-7.5928345 0 -13.748032 -6.35968 -13.748032 -14.204742z" fill-rule="evenodd"></path><path stroke="#000000" stroke-width="1.0" stroke-linejoin="round" stroke-linecap="butt" d="m250.25197 285.10236l0 0c0 -7.8450317 6.155197 -14.204712 13.748032 -14.204712l0 0c3.6462097 0 7.1430664 1.4965515 9.721313 4.1604614c2.5782776 2.66391 4.026703 6.2769165 4.026703 10.0442505l0 0c0 7.8450623 -6.155182 14.204742 -13.748016 14.204742l0 0c-7.5928345 0 -13.748032 -6.35968 -13.748032 -14.204742z" fill-rule="evenodd"></path><path fill="#000000" fill-opacity="0.0" d="m168.55643 124.28609l0 83.2126" fill-rule="evenodd"></path><path stroke="#000000" stroke-width="1.0" stroke-linejoin="round" stroke-linecap="butt" d="m168.55643 124.28609l0 83.2126" fill-rule="evenodd"></path><path fill="#000000" fill-opacity="0.0" d="m158.8351 120.12562l-83.46456 150.77167" fill-rule="evenodd"></path><path stroke="#000000" stroke-width="1.0" stroke-linejoin="round" stroke-linecap="butt" d="m158.8351 120.12562l-83.46456 150.77167" fill-rule="evenodd"></path><path fill="#000000" fill-opacity="0.0" d="m250.25197 285.10236l-161.13385 0" fill-rule="evenodd"></path><path stroke="#000000" stroke-width="1.0" stroke-linejoin="round" stroke-linecap="butt" d="m250.25197 285.10236l-161.13385 0" fill-rule="evenodd"></path><path fill="#000000" fill-opacity="0.0" d="m158.8351 231.75816l-73.76377 43.307083" fill-rule="evenodd"></path><path stroke="#000000" stroke-width="1.0" stroke-linejoin="round" stroke-linecap="butt" d="m158.8351 231.75816l-73.76377 43.307083" fill-rule="evenodd"></path><path fill="#000000" fill-opacity="0.0" d="m178.27776 231.75816l76.0 43.307083" fill-rule="evenodd"></path><path stroke="#000000" stroke-width="1.0" stroke-linejoin="round" stroke-linecap="butt" d="m178.27776 231.75816l76.0 43.307083" fill-rule="evenodd"></path><path fill="#000000" fill-opacity="0.0" d="m178.27776 120.12562l85.732285 150.77167" fill-rule="evenodd"></path><path stroke="#000000" stroke-width="1.0" stroke-linejoin="round" stroke-linecap="butt" d="m178.27776 120.12562l85.732285 150.77167" fill-rule="evenodd"></path></g></svg>

